<?xml version="1.0" standalone="no"?>
<!DOCTYPE svg PUBLIC "-//W3C//DTD SVG 20010904//EN"
 "http://www.w3.org/TR/2001/REC-SVG-20010904/DTD/svg10.dtd">
<svg version="1.0" xmlns="http://www.w3.org/2000/svg"
 width="433.000000pt" height="577.000000pt" viewBox="0 0 433.000000 577.000000"
 preserveAspectRatio="xMidYMid meet">

<g transform="translate(0.000000,577.000000) scale(0.100000,-0.100000)"
fill="#000000" stroke="none">
<path d="M0 3795 l0 -1976 87 45 c49 25 135 82 192 127 166 130 217 148 471
169 74 6 146 15 160 20 14 5 61 22 105 38 44 16 97 32 117 36 35 6 38 5 61
-36 42 -74 65 -150 77 -253 12 -101 40 -244 86 -435 14 -58 36 -154 49 -215
26 -123 39 -162 84 -251 16 -34 39 -94 51 -135 11 -41 29 -96 39 -124 54 -139
99 -275 105 -318 4 -27 20 -78 35 -115 16 -37 36 -92 45 -122 21 -67 40 -125
55 -165 6 -16 13 -42 16 -57 l5 -28 133 0 c98 0 139 4 161 15 15 8 35 15 43
15 10 0 14 7 10 20 -3 10 0 21 7 24 8 3 8 5 -1 5 -6 1 -9 10 -6 20 4 17 0 19
-32 18 -31 -2 -37 -6 -42 -29 -6 -29 -23 -39 -23 -14 0 8 -6 16 -12 19 -10 3
-10 7 1 20 11 14 11 18 -5 23 -43 14 -62 27 -57 40 3 8 11 14 19 14 8 0 14 5
14 10 0 6 9 10 20 10 11 0 20 5 20 10 0 15 -37 12 -43 -4 -6 -15 -57 -28 -57
-14 0 5 11 20 25 34 14 14 25 27 25 30 0 2 11 27 25 56 14 28 23 54 20 56 -6
6 -35 -18 -35 -29 0 -5 -7 -17 -16 -28 -15 -17 -18 -17 -35 -3 -11 9 -15 20
-10 26 5 6 11 23 13 38 5 24 2 28 -18 28 -13 0 -24 5 -24 11 0 6 9 9 20 6 17
-4 20 0 21 31 2 32 3 33 6 9 3 -20 9 -27 19 -23 9 3 14 -1 14 -14 0 -11 5 -20
11 -20 5 0 8 4 4 10 -3 5 -1 18 5 30 5 11 14 29 20 40 18 36 11 36 -20 0 -22
-26 -30 -30 -30 -17 0 9 5 17 11 17 6 0 8 8 5 18 -8 25 8 77 25 78 8 0 23 -7
33 -15 18 -15 18 -15 7 7 -7 14 -21 22 -36 22 -25 0 -33 14 -15 25 12 7 13 25
2 25 -5 0 -14 -16 -22 -35 -15 -38 -20 -41 -38 -23 -18 18 -15 27 8 21 15 -4
20 0 20 15 0 11 7 22 15 26 8 3 15 17 15 30 0 14 8 29 18 35 16 9 16 10 0 16
-13 5 -18 18 -18 44 0 44 -8 55 -27 39 -11 -9 -17 -9 -23 3 -7 9 -5 15 5 17 8
2 15 12 15 22 0 10 7 20 15 24 8 3 15 9 15 13 0 10 -74 43 -94 43 -19 0 -41
27 -26 32 13 4 3 38 -11 38 -5 0 -9 -9 -9 -20 0 -11 -4 -20 -10 -20 -5 0 -7 7
-4 15 4 8 1 22 -6 30 -10 12 -9 15 8 15 24 0 38 16 20 23 -8 4 -7 6 3 6 9 1
20 8 23 17 8 21 1 28 -16 18 -20 -13 -63 -5 -115 22 -27 13 -51 24 -55 24 -16
0 -85 54 -162 125 -26 24 -90 105 -83 105 3 0 -15 35 -39 77 -105 183 -160
320 -193 483 -11 52 -19 96 -17 97 2 2 86 -106 86 -111 0 -9 193 -196 201
-196 5 0 9 -4 9 -10 0 -5 3 -9 8 -8 14 4 52 -23 52 -38 0 -9 5 -14 12 -12 7 3
41 -24 76 -59 36 -34 68 -60 72 -58 4 3 13 -2 20 -10 7 -8 21 -15 32 -15 10 0
21 -7 24 -15 4 -9 19 -15 41 -15 27 0 34 -3 29 -15 -3 -8 -1 -15 3 -15 5 0 11
4 13 10 6 18 48 -2 49 -24 1 -17 2 -17 6 -4 2 10 8 18 13 18 5 0 11 -8 13 -17
4 -14 5 -12 6 5 0 12 5 22 11 22 5 0 9 -3 9 -7 -4 -26 2 -32 24 -24 12 5 21
14 20 19 -2 6 7 10 18 9 19 -1 19 -2 2 -15 -10 -7 -25 -17 -33 -22 -12 -7 -12
-11 -3 -21 9 -9 16 -9 26 -1 11 10 14 6 14 -17 0 -24 -4 -28 -26 -27 -14 0
-26 -3 -26 -9 0 -14 35 -17 51 -4 8 6 21 9 29 5 19 -7 20 -55 0 -62 -8 -4 -15
-10 -15 -15 0 -15 22 -10 35 7 11 15 14 15 39 -1 16 -11 25 -24 22 -32 -4 -8
-6 -19 -6 -25 0 -6 -9 -8 -19 -5 -12 3 -22 -1 -25 -10 -9 -23 -7 -28 6 -15 18
18 43 15 63 -8 9 -10 22 -18 28 -17 7 1 13 -8 15 -20 2 -13 8 -23 15 -23 6 0
3 -6 -8 -13 -17 -13 -17 -14 4 -20 20 -5 31 -37 12 -37 -5 0 -7 -9 -4 -20 3
-11 9 -17 14 -14 20 12 30 -8 14 -26 -16 -18 -15 -19 19 -25 26 -5 40 -3 51 9
9 8 34 21 55 27 22 7 40 18 40 26 0 7 5 13 10 13 6 0 24 14 42 30 32 31 48 38
48 20 0 -19 31 -10 39 12 8 22 8 22 25 -5 10 -15 14 -32 10 -39 -4 -7 -9 -28
-11 -48 -2 -19 -11 -52 -20 -73 -9 -20 -14 -39 -12 -42 7 -7 89 193 89 218 0
12 13 60 29 107 32 95 71 298 77 405 3 39 7 77 10 85 3 8 7 91 10 185 4 126 9
176 20 193 l15 22 22 -23 c15 -16 50 -32 107 -46 47 -13 123 -43 170 -68 179
-97 515 -272 604 -316 98 -47 306 -176 391 -241 44 -34 95 -72 113 -84 l32
-23 0 2230 0 2231 -2165 0 -2165 0 0 -1975z m2529 645 c-6 -5 -3 -9 10 -13 12
-3 21 -1 21 4 0 5 8 9 18 9 15 0 15 -2 2 -11 -12 -9 -11 -10 6 -6 13 3 25 -3
33 -14 6 -11 20 -19 30 -19 11 0 23 -9 26 -20 3 -11 11 -20 16 -20 5 0 9 -7 9
-15 0 -9 6 -18 14 -21 8 -3 13 -11 10 -19 -3 -7 4 -15 15 -18 12 -3 21 -10 21
-16 0 -6 -7 -8 -15 -5 -17 7 -21 -21 -5 -31 6 -3 10 -1 10 4 0 6 5 11 10 11 6
0 10 -7 10 -15 0 -8 9 -15 20 -15 13 0 20 -7 20 -20 0 -12 5 -17 13 -14 13 5
18 -16 15 -71 -1 -34 -1 -47 2 -132 2 -36 -2 -68 -9 -77 -6 -7 -8 -21 -5 -30
5 -14 2 -16 -21 -12 -21 4 -24 2 -16 -8 6 -8 8 -21 5 -30 -4 -10 4 -33 20 -56
16 -25 22 -41 15 -46 -6 -3 -8 -12 -5 -20 7 -19 -8 -18 -55 5 -22 11 -52 21
-67 24 -15 2 -21 2 -14 0 31 -11 6 -18 -63 -18 -41 0 -75 -3 -75 -7 0 -13 -72
-39 -91 -33 -9 3 -20 1 -24 -5 -4 -6 -14 -9 -22 -6 -9 4 -21 2 -27 -3 -6 -6
-24 -14 -38 -20 -22 -8 -26 -8 -21 4 3 8 0 15 -6 15 -7 0 -14 -7 -18 -16 -3
-8 -12 -13 -19 -10 -9 3 -16 -4 -20 -19 -6 -26 2 -48 16 -40 9 6 23 -25 15
-33 -3 -3 -5 0 -5 7 0 7 -13 2 -32 -12 -18 -13 -50 -32 -70 -42 -21 -11 -35
-21 -33 -24 3 -2 -2 -15 -10 -28 -16 -23 -13 -99 5 -133 4 -8 11 -37 15 -65 5
-27 15 -61 23 -73 13 -20 13 -25 1 -33 -11 -7 -12 -12 -1 -29 6 -11 12 -30 12
-42 0 -30 72 -168 88 -168 6 0 12 5 12 11 0 6 7 17 15 25 13 14 15 13 15 -3 0
-11 5 -24 12 -31 7 -7 9 -12 4 -12 -4 0 2 -13 13 -29 38 -54 8 -118 -61 -132
-90 -17 -131 -5 -68 21 17 7 30 16 30 21 0 5 9 9 20 9 24 0 27 15 4 24 -46 18
-111 0 -185 -50 -34 -22 -45 -35 -37 -41 22 -13 40 -12 65 4 13 9 26 13 29 11
7 -8 -7 -38 -16 -33 -5 3 -11 1 -15 -4 -3 -6 -12 -8 -20 -4 -21 8 -19 -13 3
-22 16 -7 15 -8 -3 -15 l-20 -9 20 0 c17 -1 17 -3 5 -11 -8 -5 -10 -10 -5 -10
6 0 16 -14 24 -31 7 -17 29 -47 47 -67 19 -20 34 -41 34 -46 0 -4 9 -6 20 -3
11 3 20 1 20 -4 0 -5 3 -8 8 -8 20 3 31 -3 37 -22 5 -16 10 -18 21 -8 11 9 14
8 14 -2 0 -12 2 -12 9 -1 6 10 10 8 16 -10 6 -21 8 -21 12 -4 4 15 7 16 13 6
6 -10 34 -14 92 -15 75 -1 90 -5 157 -38 40 -20 81 -37 90 -37 14 0 14 2 1 10
-9 6 -10 10 -3 10 6 0 18 3 27 6 9 3 26 -5 41 -20 l26 -26 -30 -31 c-17 -17
-29 -35 -25 -40 3 -5 0 -9 -7 -9 -8 0 -10 -12 -5 -41 6 -37 5 -40 -14 -35 -11
3 -29 9 -40 12 -30 8 -24 -11 8 -23 l27 -11 -27 -1 c-15 -1 -30 -6 -34 -12 -3
-6 -17 -9 -30 -6 -16 3 -28 -2 -34 -12 -5 -9 -10 -11 -10 -6 0 6 -4 4 -8 -3
-5 -7 -19 -14 -32 -17 -12 -2 -25 -7 -28 -9 -2 -3 -13 -1 -23 5 -11 5 -19 6
-19 2 0 -9 48 -33 67 -33 7 0 10 -7 7 -15 -5 -13 -9 -13 -22 -3 -13 11 -14 10
-8 -10 5 -13 3 -22 -3 -22 -6 0 -11 7 -11 15 0 8 -7 15 -15 15 -8 0 -15 -5
-15 -11 0 -6 -7 -17 -16 -26 -8 -9 -14 -27 -14 -42 3 -42 1 -51 -13 -51 -12 0
-29 -22 -55 -73 -16 -32 -32 -31 -47 1 -9 20 -28 32 -60 38 -15 2 -37 -24 -25
-31 6 -3 10 -1 10 6 0 7 3 9 6 6 8 -8 -14 -37 -27 -37 -5 0 -9 14 -9 30 0 39
-21 47 -68 26 -39 -18 -51 -51 -31 -88 6 -12 6 -18 -1 -18 -5 0 -10 5 -10 10
0 6 -5 10 -10 10 -7 0 -7 -7 0 -20 7 -14 8 -26 1 -38 -10 -16 -10 -15 -11 3 0
17 -2 17 -10 5 -7 -10 -10 -11 -10 -2 0 10 -4 10 -20 0 -22 -14 -39 -3 -22 14
15 15 15 48 1 85 l-11 28 -23 -29 c-16 -20 -24 -24 -28 -15 -3 9 -6 7 -6 -5
-1 -16 -4 -17 -13 -8 -16 16 -33 15 -19 -1 6 -8 8 -17 4 -20 -9 -9 -23 -9 -22
1 4 21 -3 31 -16 26 -11 -5 -15 1 -15 22 0 21 -3 25 -9 15 -5 -8 -7 -20 -4
-28 3 -8 -3 -13 -17 -13 -17 0 -21 -4 -17 -20 8 -30 -26 -46 -49 -25 -9 7 -9
14 -1 25 7 9 3 8 -9 -3 -21 -17 -22 -17 -27 4 -4 16 -11 20 -30 17 -19 -4 -23
-1 -20 12 6 22 -32 33 -48 14 -14 -17 -39 -18 -40 -1 0 9 -2 9 -5 0 -8 -18
-34 -4 -34 18 0 10 8 23 18 29 14 9 13 10 -8 4 -14 -4 -31 -9 -37 -11 -7 -3
-14 2 -14 11 -1 9 -2 22 -3 29 -1 6 -7 16 -13 20 -15 10 -17 37 -3 37 6 0 10
5 10 10 0 6 -11 10 -25 10 -31 0 -32 13 -4 39 15 14 17 19 6 17 -24 -3 -48
-28 -43 -43 3 -7 2 -13 -3 -13 -21 0 -18 40 5 57 29 22 30 29 4 36 -13 3 -21
-1 -25 -14 -4 -11 -11 -17 -16 -14 -13 9 10 48 24 42 7 -2 18 2 25 9 11 12 9
14 -12 14 -15 0 -26 7 -29 18 -2 9 -10 -11 -17 -45 -17 -75 -29 -82 -24 -16 2
27 1 40 -2 31 -5 -16 -7 -16 -21 -3 -13 13 -13 21 -3 46 7 16 10 32 6 36 -3 3
-6 -1 -6 -10 0 -10 -4 -17 -9 -17 -5 0 -7 10 -4 21 4 15 2 20 -7 17 -15 -5
-32 -56 -25 -75 3 -8 -5 -12 -21 -11 -22 2 -25 6 -20 28 5 28 -8 59 -20 47
-10 -10 -64 77 -64 102 0 11 -4 23 -10 26 -5 3 -10 13 -10 22 0 8 -6 29 -14
46 -8 18 -17 50 -19 72 -5 45 -8 56 -33 140 -10 33 -17 63 -16 66 0 3 -5 30
-13 60 -8 30 -15 68 -15 86 0 17 -4 34 -8 37 -8 5 1 -130 13 -183 4 -18 3 -31
-3 -31 -15 0 -22 26 -22 78 0 26 -11 83 -25 127 -14 44 -25 93 -25 108 0 16
-15 63 -34 105 -28 66 -34 92 -39 183 -4 73 -2 110 6 118 17 17 62 13 86 -6
19 -16 21 -29 22 -130 1 -62 5 -111 9 -108 4 2 10 37 13 77 3 40 11 123 16
183 9 107 15 400 12 639 0 70 3 124 10 132 5 7 11 23 13 36 3 25 16 60 25 68
3 3 15 22 26 44 22 44 81 106 100 106 22 0 95 36 88 44 -4 4 0 4 9 1 11 -4 18
0 22 13 5 14 13 18 28 14 15 -4 19 -2 13 7 -6 10 0 11 25 6 23 -5 30 -4 26 4
-10 16 -2 14 38 -10 24 -14 36 -17 36 -9 0 8 8 10 22 7 12 -4 29 -1 37 6 12
10 13 9 6 -3 -7 -12 -6 -13 6 -4 18 14 82 14 91 0 5 -8 13 -7 28 2 18 11 20
10 20 -10 1 -23 1 -23 16 -3 9 13 17 16 22 9 4 -6 14 -13 23 -16 12 -5 16 -2
12 11 -3 13 1 17 16 16 22 -1 42 -15 23 -15 -7 0 -12 -4 -12 -9 0 -4 11 -6 25
-3 15 2 25 0 25 -7 0 -6 7 -11 15 -11 9 0 15 -9 15 -21 0 -14 5 -19 14 -16 7
3 19 0 25 -6 10 -9 15 -8 25 6 7 9 18 17 24 17 6 0 9 7 6 15 -5 11 -2 13 10 9
9 -3 16 -10 16 -16 0 -5 5 -6 10 -3 6 4 18 1 26 -6 8 -6 17 -9 21 -6 3 4 12
-1 19 -11 12 -15 13 -14 14 11 0 20 5 27 20 27 11 0 20 -4 20 -10 0 -5 5 -10
10 -10 6 0 10 7 10 15 0 15 9 18 46 16 12 -1 29 5 38 14 9 9 20 14 25 10 6 -3
14 3 20 12 6 10 11 14 11 8 0 -15 108 -14 114 1 4 10 13 10 41 1 20 -6 31 -14
24 -17z m-207 -892 c-9 -9 -12 -7 -12 12 0 19 3 21 12 12 9 -9 9 -15 0 -24z
m435 -2 c15 4 24 3 21 -2 -7 -11 17 -35 26 -27 12 12 5 -12 -9 -31 -14 -18
-19 -18 -156 -2 -79 9 -147 20 -153 26 -7 7 -5 10 6 10 9 0 18 4 20 9 2 6 41
11 88 12 47 1 94 5 105 9 11 4 21 4 23 -1 2 -5 15 -6 29 -3z m-317 -142 c0
-17 -26 -19 -36 -3 -7 12 15 31 28 23 4 -3 8 -12 8 -20z m70 6 c0 -5 -5 -10
-11 -10 -5 0 -7 5 -4 10 3 6 8 10 11 10 2 0 4 -4 4 -10z m26 -71 c11 -18 -13
-34 -31 -19 -8 7 -15 16 -15 21 0 13 38 11 46 -2z m619 -74 c-33 -44 -44 -44
-36 -3 4 21 16 37 31 45 35 17 37 -1 5 -42z m-610 22 l50 -13 -40 -7 c-48 -8
-85 0 -85 19 0 17 11 17 75 1z m416 -23 c2 2 5 -14 6 -37 2 -22 7 -43 11 -46
14 -9 24 -87 25 -193 1 -54 5 -98 8 -98 10 0 -3 -104 -14 -111 -5 -4 -7 -19
-5 -33 3 -14 1 -26 -4 -26 -5 0 -7 -4 -4 -9 11 -17 -6 -41 -30 -41 -19 0 -23
-5 -22 -27 3 -39 -24 -163 -34 -163 -5 0 -6 -5 -2 -11 4 -8 0 -9 -15 -4 -26 8
-27 -2 -3 -28 9 -11 11 -17 5 -13 -7 4 -13 2 -13 -3 0 -6 -8 -11 -17 -11 -14
0 -15 -2 -5 -9 11 -7 10 -10 -3 -15 -9 -3 -21 -3 -27 0 -6 4 -14 0 -19 -7 -6
-11 -11 -11 -21 -1 -8 8 -8 12 -1 12 6 0 14 7 17 16 4 12 1 14 -14 9 -14 -4
-20 -2 -18 6 2 7 -6 13 -17 14 -11 0 -20 5 -20 10 0 6 -4 15 -8 22 -4 6 -4 19
0 29 4 12 3 15 -5 10 -8 -4 -10 -2 -6 8 4 10 -4 16 -26 21 -17 4 -34 13 -37
20 -2 8 -10 12 -17 9 -7 -3 -23 4 -36 16 -27 24 -34 25 -27 6 8 -20 -51 -27
-85 -10 -15 8 -32 23 -38 34 -6 11 -16 20 -22 20 -14 0 -48 30 -48 43 0 5 6 4
14 -2 11 -9 14 -6 14 14 0 15 -5 22 -12 18 -8 -5 -8 -3 0 8 20 26 17 122 -6
185 -12 32 -23 64 -24 69 -2 6 -6 17 -9 25 -4 8 -8 26 -9 40 -2 14 -7 28 -12
31 -11 9 -15 128 -4 135 4 3 6 9 3 13 -2 5 7 6 20 3 19 -3 25 0 25 13 0 12 6
16 20 12 21 -5 28 9 8 15 -8 3 -7 6 3 10 7 3 41 -4 74 -15 85 -29 283 -31 314
-3 12 11 27 16 37 12 9 -3 23 -1 30 5 8 6 25 9 39 7 14 -3 28 -1 31 4 3 5 11
5 18 -1 7 -6 15 -9 17 -7z m229 -134 c-13 -62 -25 -88 -36 -78 -3 4 1 28 10
54 9 26 16 64 16 83 1 31 2 33 11 17 8 -13 8 -34 -1 -76z m-50 -75 c17 -59 9
-170 -13 -192 -9 -9 -19 -15 -21 -12 -11 10 -17 177 -7 184 6 3 11 19 11 36 0
43 16 35 30 -16z m-53 -267 c-3 -7 -5 -2 -5 12 0 14 2 19 5 13 2 -7 2 -19 0
-25z m-252 -435 c-11 -8 -19 -19 -17 -24 3 -13 -12 -11 -26 3 -8 8 -3 15 21
27 37 20 51 16 22 -6z m-1428 -395 c-3 -8 -6 -5 -6 6 -1 11 2 17 5 13 3 -3 4
-12 1 -19z m1053 -108 c0 -5 -2 -10 -4 -10 -3 0 -8 5 -11 10 -3 6 -1 10 4 10
6 0 11 -4 11 -10z m-251 -89 c0 -20 -3 -30 -6 -23 -2 6 -9 10 -14 6 -5 -3 -9
11 -9 30 0 27 -3 34 -15 30 -21 -8 -19 23 2 34 22 13 43 -26 42 -77z m-528 12
c-12 -20 -14 -14 -5 12 4 9 9 14 11 11 3 -2 0 -13 -6 -23z m203 -19 c-5 -21
-4 -25 6 -19 8 5 11 3 9 -4 -3 -7 -9 -12 -14 -12 -12 0 -19 27 -11 47 9 24 17
15 10 -12z m286 22 c0 -3 -4 -8 -10 -11 -5 -3 -10 -1 -10 4 0 6 5 11 10 11 6
0 10 -2 10 -4z m-156 -21 c3 -8 2 -14 -2 -14 -18 3 -32 -2 -32 -11 0 -5 5 -9
11 -7 19 4 29 -49 14 -70 -12 -16 -13 -15 -8 10 3 15 1 27 -5 27 -5 0 -13 12
-17 27 -5 20 -2 31 11 40 22 16 21 16 28 -2z m143 -57 c-3 -7 -5 -2 -5 12 0
14 2 19 5 13 2 -7 2 -19 0 -25z m-187 -10 c0 -6 -3 -8 -6 -5 -4 3 -16 1 -28
-5 l-21 -11 20 20 c20 21 35 21 35 1z m-99 -11 c-10 -9 -11 -8 -5 6 3 10 9 15
12 12 3 -3 0 -11 -7 -18z m39 16 c0 -5 -5 -15 -10 -23 -8 -12 -10 -11 -10 8 0
12 5 22 10 22 6 0 10 -3 10 -7z m67 -40 c2 -6 -4 -13 -13 -17 -21 -8 -26 -3
-18 18 7 18 25 17 31 -1z m116 -18 c-3 -9 -8 -14 -10 -11 -3 3 -2 9 2 15 9 16
15 13 8 -4z m482 -175 c3 -5 1 -10 -4 -10 -6 0 -11 5 -11 10 0 6 2 10 4 10 3
0 8 -4 11 -10z m-35 -30 c0 -12 -7 -32 -16 -46 -13 -19 -23 -24 -43 -19 -21 4
-30 -1 -48 -28 -13 -18 -23 -36 -23 -40 0 -16 24 -5 50 23 19 20 37 30 57 30
27 -1 27 -1 8 -15 -44 -32 -48 -37 -33 -46 10 -7 8 -10 -9 -15 -11 -3 -23 -14
-26 -25 -7 -27 -57 -27 -57 1 0 14 5 18 18 14 15 -5 16 -4 1 8 -25 21 -38 73
-19 73 6 0 16 11 23 25 10 19 20 25 45 24 27 -2 32 2 32 20 0 26 8 36 27 36 7
0 13 -9 13 -20z m-267 -107 c-7 -2 -19 -2 -25 0 -7 3 -2 5 12 5 14 0 19 -2 13
-5z m40 -50 c-6 -14 -14 -16 -37 -7 -26 10 -18 23 13 21 18 -1 27 -7 24 -14z
m60 10 c-7 -2 -19 -2 -25 0 -7 3 -2 5 12 5 14 0 19 -2 13 -5z m7 -59 c0 -8 -4
-12 -10 -9 -5 3 -10 10 -10 16 0 5 5 9 10 9 6 0 10 -7 10 -16z m-30 -14 c13
-8 13 -10 -2 -10 -9 0 -20 5 -23 10 -8 13 5 13 25 0z m278 -84 c-7 -8 -17 -12
-22 -9 -4 3 -2 9 5 14 22 13 31 11 17 -5z m-868 -16 c0 -5 -4 -10 -10 -10 -5
0 -10 5 -10 10 0 6 5 10 10 10 6 0 10 -4 10 -10z m270 -600 c0 -5 -4 -10 -10
-10 -5 0 -10 5 -10 10 0 6 5 10 10 10 6 0 10 -4 10 -10z m120 -430 c0 -5 -4
-10 -10 -10 -5 0 -10 5 -10 10 0 6 5 10 10 10 6 0 10 -4 10 -10z m15 -30 c4
-6 -5 -10 -19 -10 -14 0 -26 5 -26 10 0 6 9 10 19 10 11 0 23 -4 26 -10z"/>
<path d="M2487 4439 c7 -7 15 -10 18 -7 3 3 -2 9 -12 12 -14 6 -15 5 -6 -5z"/>
<path d="M2815 4140 c-3 -5 -1 -10 4 -10 6 0 11 5 11 10 0 6 -2 10 -4 10 -3 0
-8 -4 -11 -10z"/>
<path d="M1243 3647 c-52 -15 -86 -46 -106 -98 -14 -36 -14 -41 -1 -46 9 -3
25 0 37 6 106 58 97 56 227 36 19 -3 68 -11 108 -17 39 -6 72 -14 72 -19 0
-11 -56 -27 -135 -39 -38 -5 -87 -15 -108 -21 -43 -12 -119 -77 -100 -85 8 -4
10 -16 6 -35 -5 -26 -3 -29 20 -29 14 0 27 -7 31 -15 8 -21 62 -19 71 3 7 16
8 15 15 -3 8 -18 9 -19 9 -1 1 12 6 16 15 13 11 -4 13 -1 9 10 -4 11 -2 14 5
9 7 -4 12 -13 12 -21 0 -7 8 -12 18 -10 9 2 19 4 22 4 3 1 -2 6 -10 11 -17 11
-18 11 50 13 19 1 38 7 42 12 4 6 8 -2 8 -16 0 -26 23 -45 41 -33 5 3 9 2 9
-1 0 -3 -19 -15 -42 -25 l-43 -20 55 4 c50 3 95 17 158 48 15 8 20 17 16 30
-4 14 0 18 21 18 24 0 27 -3 22 -26 l-5 -26 30 30 c22 21 32 42 35 74 5 42 3
48 -28 76 -63 56 -82 72 -90 72 -5 0 -6 7 -3 15 4 8 1 21 -5 29 -6 7 -8 16 -4
19 3 4 -3 10 -13 14 -10 3 -22 11 -26 17 -5 7 -8 6 -8 -4 -1 -13 -2 -13 -13 1
-28 36 -157 46 -157 12 0 -10 -6 -13 -16 -9 -9 3 -27 6 -40 6 -30 0 -32 17 -1
24 12 2 -7 3 -43 1 -36 -1 -73 -6 -82 -10 -11 -4 -18 -3 -18 4 0 13 -12 13
-67 -2z m37 -12 c0 -2 -10 -10 -22 -16 -21 -11 -22 -11 -9 4 13 16 31 23 31
12z m222 -190 c-1 -5 -15 -14 -30 -18 -47 -13 -175 -37 -179 -33 -2 2 18 14
44 26 70 34 172 49 165 25z m162 -54 c3 -5 -1 -12 -10 -15 -22 -9 -24 -8 -24
9 0 16 25 21 34 6z m-221 -64 c-3 -5 -14 0 -25 9 -18 17 -18 19 -1 25 18 6 36
-17 26 -34z m160 -23 c-3 -8 -13 -14 -22 -13 -9 0 -11 3 -4 5 7 3 9 12 6 20
-4 10 0 12 10 8 9 -3 13 -12 10 -20z"/>
<path d="M2214 3587 c3 -10 6 -23 6 -27 0 -5 9 -14 20 -20 26 -14 25 -11 -6
31 -15 19 -24 26 -20 16z"/>
<path d="M1736 3578 c3 -4 9 -8 15 -8 5 0 9 4 9 8 0 5 -7 9 -15 9 -8 0 -12 -4
-9 -9z"/>
<path d="M955 3203 c9 -78 14 -93 31 -93 22 0 18 99 -5 128 -11 12 -22 22 -26
22 -3 0 -3 -26 0 -57z"/>
<path d="M1488 3223 c6 -2 18 -2 25 0 6 3 1 5 -13 5 -14 0 -19 -2 -12 -5z"/>
<path d="M1040 2964 c0 -8 5 -12 10 -9 6 4 8 11 5 16 -9 14 -15 11 -15 -7z"/>
<path d="M1052 2880 c0 -14 2 -19 5 -12 2 6 2 18 0 25 -3 6 -5 1 -5 -13z"/>
<path d="M1805 2773 c-48 -10 -47 -16 5 -29 30 -7 72 -13 94 -14 l39 0 -24 18
c-25 20 -80 31 -114 25z"/>
<path d="M1728 2689 c15 -16 152 -26 152 -11 0 5 -12 10 -27 9 -16 0 -53 3
-83 8 -46 6 -53 5 -42 -6z"/>
<path d="M1899 2653 c-13 -16 -12 -17 4 -4 16 13 21 21 13 21 -2 0 -10 -8 -17
-17z"/>
<path d="M1800 2605 c-5 -14 -12 -25 -14 -25 -3 0 -3 7 0 15 7 18 -7 20 -25 3
-11 -11 -13 -10 -8 5 7 17 6 17 -24 0 -17 -10 -35 -28 -40 -40 -8 -21 -20 -28
-41 -24 -5 0 -8 -3 -8 -8 0 -5 -21 -16 -47 -25 l-48 -16 30 26 30 25 -40 -5
c-22 -2 -50 -8 -63 -11 -13 -4 -28 -2 -37 5 -11 9 -18 9 -35 -3 -11 -7 -17
-17 -13 -20 3 -4 -8 -20 -25 -35 -38 -34 -39 -38 -9 -46 22 -6 22 -7 3 -21
-18 -14 -19 -15 -2 -15 12 0 16 -5 13 -15 -5 -10 1 -14 23 -12 15 1 26 5 24 8
-2 4 26 14 64 22 50 11 69 12 74 4 5 -9 10 -9 20 1 6 6 21 12 31 12 10 0 32 8
48 17 26 16 31 16 39 3 7 -10 10 -11 10 -2 0 6 9 21 20 32 17 17 20 18 28 3 8
-13 11 -12 26 8 14 20 18 22 26 9 8 -12 10 -12 10 -1 0 8 3 11 7 8 8 -9 36 30
29 42 -3 4 1 17 9 27 13 16 14 17 9 2 -3 -10 -1 -18 5 -18 14 0 14 5 0 54 -8
30 -13 36 -21 25 -7 -11 -11 -11 -15 -1 -9 23 -53 14 -63 -13z"/>
<path d="M2070 2610 c0 -5 5 -10 11 -10 5 0 7 5 4 10 -3 6 -8 10 -11 10 -2 0
-4 -4 -4 -10z"/>
<path d="M2118 2378 c0 -7 -2 -17 -2 -23 -1 -5 -6 -10 -11 -10 -6 0 -9 5 -7
12 5 21 -46 15 -68 -7 -11 -11 -20 -25 -20 -31 0 -5 -5 -7 -10 -4 -6 4 -8 15
-5 26 5 15 1 19 -14 19 -28 0 -37 -3 -33 -12 1 -5 -2 -8 -7 -8 -5 0 -11 10
-14 21 -5 19 -11 21 -46 15 -22 -3 -77 -18 -122 -32 -57 -18 -93 -24 -118 -20
-20 4 -51 9 -68 12 -18 4 -33 3 -33 0 0 -14 36 -46 53 -46 10 0 44 -18 76 -41
32 -23 70 -42 85 -42 14 -1 26 -5 26 -8 0 -4 9 -9 19 -12 17 -4 18 -2 8 14 -6
10 -20 19 -29 19 -10 0 -15 5 -12 13 6 16 85 17 96 2 5 -6 8 -5 8 3 0 14 36
16 45 2 3 -5 12 -7 20 -3 8 3 15 0 15 -7 0 -9 3 -10 14 -1 11 9 15 7 20 -11 7
-23 8 -23 22 22 9 26 27 -18 20 -47 -5 -16 -3 -22 4 -18 5 3 11 16 11 28 1 17
3 15 9 -8 l8 -30 1 33 c1 25 5 32 21 32 14 0 20 -7 21 -22 l0 -23 10 24 c8 19
12 21 24 11 12 -10 15 -9 15 6 0 17 3 16 20 -6 11 -14 18 -18 14 -8 -11 31 7
43 27 17 21 -27 25 -44 8 -34 -7 5 -9 -3 -7 -21 3 -26 7 -29 33 -26 61 6 234
79 235 98 0 15 44 27 48 14 2 -5 8 -5 15 2 14 12 10 98 -4 98 -5 0 -9 -4 -9
-9 0 -13 -59 -19 -64 -7 -3 7 -5 6 -5 -1 -1 -18 -64 -16 -124 2 -26 8 -76 19
-110 25 -34 6 -72 13 -84 15 -14 3 -24 0 -25 -7z m-205 -20 c-4 -7 -8 -17 -8
-23 0 -11 -8 -15 -29 -15 -11 0 -8 7 7 25 23 26 44 35 30 13z m57 -28 c0 -11
-4 -20 -9 -20 -5 0 -7 9 -4 20 3 11 7 20 9 20 2 0 4 -9 4 -20z m270 -84 c0 5
5 1 11 -9 13 -22 2 -42 -16 -27 -7 6 -15 20 -18 31 -4 16 -3 18 9 8 8 -6 14
-8 14 -3z"/>
<path d="M1237 2334 c-3 -3 -4 -12 -1 -20 15 -50 15 -49 24 -34 13 20 12 33 0
25 -9 -6 -14 8 -11 28 1 9 -4 9 -12 1z"/>
<path d="M1284 2292 c-20 -13 -26 -59 -8 -66 9 -3 21 -3 27 1 9 5 9 3 1 -8
-13 -18 -18 -83 -5 -75 5 4 12 -2 14 -11 3 -11 5 -8 6 10 0 15 0 29 -1 31 -2
2 6 14 17 27 11 12 15 19 8 15 -8 -4 -11 2 -10 21 2 24 -1 28 -20 25 -17 -2
-21 1 -17 12 3 9 11 13 17 9 6 -3 7 -1 3 5 -8 14 -16 15 -32 4z"/>
<path d="M1231 2214 c0 -11 3 -14 6 -6 3 7 2 16 -1 19 -3 4 -6 -2 -5 -13z"/>
<path d="M2176 2162 c-10 -16 1 -32 22 -32 11 0 13 3 6 8 -6 4 -13 14 -16 22
-3 10 -6 11 -12 2z"/>
<path d="M2070 2049 c0 -7 -10 -9 -25 -5 -16 4 -25 2 -25 -5 0 -7 -3 -9 -7 -6
-8 8 -33 -11 -33 -25 0 -6 9 -8 19 -5 15 4 18 0 16 -19 -3 -30 9 -31 23 -1
l11 22 0 -22 c1 -30 36 -49 56 -30 8 8 11 17 8 21 -4 3 1 6 10 6 10 0 17 -4
17 -10 0 -5 10 -10 21 -10 19 0 20 2 8 16 -7 9 -18 25 -24 37 -11 24 -75 54
-75 36z"/>
<path d="M2159 2017 c4 -10 10 -18 14 -18 4 1 12 1 18 1 5 0 7 5 3 11 -4 8 0
8 15 0 14 -8 21 -8 21 -1 0 7 7 7 23 -1 21 -11 21 -11 4 7 -12 13 -32 19 -61
19 -38 0 -43 -2 -37 -18z"/>
<path d="M1946 1869 c-11 -10 -14 -19 -8 -19 7 0 12 -7 12 -16 0 -14 2 -14 15
0 17 17 20 30 4 20 -8 -4 -9 0 -4 15 8 25 6 25 -19 0z"/>
<path d="M1996 1873 c-6 -14 -5 -15 5 -6 7 7 10 15 7 18 -3 3 -9 -2 -12 -12z"/>
<path d="M1910 1820 c0 -6 7 -10 15 -10 8 0 15 2 15 4 0 2 -7 6 -15 10 -8 3
-15 1 -15 -4z"/>
<path d="M2761 2504 c0 -11 3 -14 6 -6 3 7 2 16 -1 19 -3 4 -6 -2 -5 -13z"/>
<path d="M2070 1380 c0 -6 7 -10 15 -10 8 0 15 2 15 4 0 2 -7 6 -15 10 -8 3
-15 1 -15 -4z"/>
<path d="M2250 1140 c-8 -5 -11 -12 -7 -16 4 -4 13 -2 19 4 15 15 7 24 -12 12z"/>
<path d="M2190 1101 c0 -4 11 -13 25 -19 15 -7 25 -8 25 -2 0 6 8 10 17 10 9
0 13 3 9 7 -10 10 -76 14 -76 4z"/>
<path d="M2285 1070 l-30 -8 33 -1 c17 0 32 4 32 9 0 6 -1 9 -2 9 -2 -1 -16
-5 -33 -9z"/>
<path d="M2020 1040 c0 -5 5 -10 11 -10 5 0 7 5 4 10 -3 6 -8 10 -11 10 -2 0
-4 -4 -4 -10z"/>
<path d="M1985 970 c-3 -5 -1 -10 4 -10 6 0 11 5 11 10 0 6 -2 10 -4 10 -3 0
-8 -4 -11 -10z"/>
<path d="M2622 825 c0 -16 2 -22 5 -12 2 9 2 23 0 30 -3 6 -5 -1 -5 -18z"/>
<path d="M2507 463 c-4 -3 -7 -13 -7 -22 1 -13 3 -13 11 2 11 19 8 33 -4 20z"/>
<path d="M330 431 c0 -11 4 -22 9 -25 4 -3 6 6 3 19 -5 30 -12 33 -12 6z"/>
<path d="M2010 360 c0 -19 3 -21 12 -12 9 9 9 15 0 24 -9 9 -12 7 -12 -12z"/>
<path d="M2461 332 c-6 -12 -11 -32 -11 -46 0 -14 -4 -26 -8 -26 -4 0 -9 -12
-10 -27 -1 -14 -14 -46 -28 -70 -14 -24 -22 -48 -18 -54 4 -6 0 -15 -7 -20
-10 -6 -6 -8 11 -6 30 4 43 37 71 171 19 92 19 113 0 78z"/>
<path d="M320 309 c0 -11 4 -18 10 -14 5 3 7 12 3 20 -7 21 -13 19 -13 -6z"/>
<path d="M2187 296 c-4 -10 -5 -21 -2 -24 9 -9 17 6 13 25 -3 17 -4 17 -11 -1z"/>
<path d="M2130 275 c0 -11 5 -15 14 -12 10 4 18 -4 25 -21 10 -25 10 -25 8 -3
-1 13 -12 30 -24 39 -21 13 -23 13 -23 -3z"/>
<path d="M2360 260 c0 -5 5 -10 10 -10 6 0 10 5 10 10 0 6 -4 10 -10 10 -5 0
-10 -4 -10 -10z"/>
<path d="M319 213 c0 -16 -2 -37 -4 -48 -10 -64 -14 -168 -7 -160 10 11 26
235 17 235 -3 0 -5 -12 -6 -27z"/>
<path d="M2060 170 c0 -5 5 -10 10 -10 6 0 10 5 10 10 0 6 -4 10 -10 10 -5 0
-10 -4 -10 -10z"/>
</g>
</svg>
